<svg xmlns="http://www.w3.org/2000/svg" xmlns:xlink="http://www.w3.org/1999/xlink" width="150" zoomAndPan="magnify" viewBox="0 0 112.5 112.499997" height="150" preserveAspectRatio="xMidYMid meet" version="1.0"><defs><g/><clipPath id="ed42a8096f"><path d="M 28 34.363281 L 33 34.363281 L 33 65.726562 L 28 65.726562 Z M 28 34.363281 " clip-rule="nonzero"/></clipPath><clipPath id="ff7ce90b71"><path d="M 15.046875 48 L 18 48 L 18 52 L 15.046875 52 Z M 15.046875 48 " clip-rule="nonzero"/></clipPath><clipPath id="4833065e50"><path d="M 78 34.363281 L 83 34.363281 L 83 65.726562 L 78 65.726562 Z M 78 34.363281 " clip-rule="nonzero"/></clipPath><clipPath id="cc7d8553f2"><path d="M 93 48 L 95.691406 48 L 95.691406 52 L 93 52 Z M 93 48 " clip-rule="nonzero"/></clipPath><clipPath id="d2b5ecf30a"><path d="M 28 69.859375 L 83.722656 69.859375 L 83.722656 81 L 28 81 Z M 28 69.859375 " clip-rule="nonzero"/></clipPath></defs><g clip-path="url(#ed42a8096f)"><path fill="#737373" d="M 28.527344 34.363281 L 32.378906 34.363281 L 32.378906 65.515625 L 28.527344 65.515625 Z M 28.527344 34.363281 " fill-opacity="1" fill-rule="nonzero"/></g><path fill="#737373" d="M 23.570312 37.589844 L 27.425781 37.589844 L 27.425781 62.289062 L 23.570312 62.289062 Z M 23.570312 37.589844 " fill-opacity="1" fill-rule="nonzero"/><path fill="#737373" d="M 18.589844 40.773438 L 22.445312 40.773438 L 22.445312 59.101562 L 18.589844 59.101562 Z M 18.589844 40.773438 " fill-opacity="1" fill-rule="nonzero"/><g clip-path="url(#ff7ce90b71)"><path fill="#737373" d="M 15.066406 48.246094 L 17.585938 48.246094 L 17.585938 51.628906 L 15.066406 51.628906 Z M 15.066406 48.246094 " fill-opacity="1" fill-rule="nonzero"/></g><path fill="#737373" d="M 33.480469 48.246094 L 77.378906 48.246094 L 77.378906 51.628906 L 33.480469 51.628906 Z M 33.480469 48.246094 " fill-opacity="1" fill-rule="nonzero"/><g clip-path="url(#4833065e50)"><path fill="#737373" d="M 82.359375 34.363281 L 78.503906 34.363281 L 78.503906 65.515625 L 82.359375 65.515625 Z M 82.359375 34.363281 " fill-opacity="1" fill-rule="nonzero"/></g><path fill="#737373" d="M 87.3125 37.589844 L 83.460938 37.589844 L 83.460938 62.289062 L 87.3125 62.289062 Z M 87.3125 37.589844 " fill-opacity="1" fill-rule="nonzero"/><path fill="#737373" d="M 92.269531 40.773438 L 88.414062 40.773438 L 88.414062 59.101562 L 92.269531 59.101562 Z M 92.269531 40.773438 " fill-opacity="1" fill-rule="nonzero"/><g clip-path="url(#cc7d8553f2)"><path fill="#737373" d="M 95.816406 48.246094 L 93.296875 48.246094 L 93.296875 51.628906 L 95.816406 51.628906 Z M 95.816406 48.246094 " fill-opacity="1" fill-rule="nonzero"/></g><g clip-path="url(#d2b5ecf30a)"><path fill="#feba2d" d="M 77.777344 80.890625 L 33.664062 80.890625 C 33.121094 80.890625 32.585938 80.8125 32.066406 80.652344 C 31.542969 80.496094 31.054688 80.265625 30.601562 79.960938 C 30.148438 79.660156 29.75 79.296875 29.40625 78.875 C 29.058594 78.453125 28.78125 77.992188 28.574219 77.488281 C 28.367188 76.984375 28.234375 76.460938 28.179688 75.917969 C 28.128906 75.378906 28.152344 74.839844 28.261719 74.304688 C 28.367188 73.769531 28.546875 73.261719 28.804688 72.78125 C 29.0625 72.300781 29.382812 71.867188 29.769531 71.484375 C 30.285156 70.964844 30.878906 70.566406 31.554688 70.285156 C 32.230469 70.007812 32.933594 69.867188 33.664062 69.867188 L 77.777344 69.867188 C 78.324219 69.867188 78.855469 69.949219 79.375 70.105469 C 79.898438 70.265625 80.386719 70.496094 80.839844 70.796875 C 81.292969 71.101562 81.691406 71.460938 82.035156 71.882812 C 82.382812 72.304688 82.660156 72.765625 82.867188 73.269531 C 83.078125 73.773438 83.207031 74.296875 83.261719 74.839844 C 83.316406 75.382812 83.289062 75.921875 83.183594 76.453125 C 83.074219 76.988281 82.894531 77.496094 82.636719 77.976562 C 82.378906 78.457031 82.058594 78.890625 81.671875 79.277344 C 81.160156 79.792969 80.5625 80.195312 79.886719 80.472656 C 79.210938 80.753906 78.507812 80.890625 77.777344 80.890625 Z M 33.664062 70.015625 C 30.707031 70.015625 28.300781 72.421875 28.300781 75.378906 C 28.300781 78.335938 30.707031 80.742188 33.664062 80.742188 L 77.777344 80.742188 C 80.734375 80.742188 83.140625 78.335938 83.140625 75.378906 C 83.140625 72.421875 80.734375 70.015625 77.777344 70.015625 Z M 33.664062 70.015625 " fill-opacity="1" fill-rule="nonzero"/></g><g fill="#ff6b57" fill-opacity="1"><g transform="translate(24.741477, 27.72658)"><g><path d="M 3.148438 -11.078125 L 0.796875 0 L 9.964844 0 L 10.449219 -2.265625 L 3.957031 -2.265625 L 4.414062 -4.398438 L 9.324219 -4.398438 L 9.808594 -6.679688 L 4.898438 -6.679688 L 5.355469 -8.8125 L 11.847656 -8.8125 L 12.316406 -11.078125 Z M 3.148438 -11.078125 "/></g></g></g><g fill="#ff6b57" fill-opacity="1"><g transform="translate(34.835135, 27.72658)"><g><path d="M 3.148438 -11.078125 L 0.796875 0 L 3.472656 0 L 4.257812 -3.714844 L 6.476562 -3.714844 L 8.257812 0 L 11.53125 0 L 9.765625 -3.714844 L 9.882812 -3.714844 C 10.765625 -3.714844 11.617188 -4.414062 11.804688 -5.296875 L 12.699219 -9.496094 C 12.730469 -9.609375 12.730469 -9.726562 12.730469 -9.824219 C 12.730469 -10.550781 12.214844 -11.078125 11.449219 -11.078125 Z M 4.742188 -5.980469 L 5.355469 -8.8125 L 9.46875 -8.8125 C 9.667969 -8.8125 9.796875 -8.699219 9.796875 -8.515625 C 9.796875 -8.484375 9.78125 -8.457031 9.78125 -8.429688 L 9.339844 -6.363281 C 9.296875 -6.136719 9.085938 -5.980469 8.855469 -5.980469 Z M 4.742188 -5.980469 "/></g></g></g><g fill="#ff6b57" fill-opacity="1"><g transform="translate(46.16737, 27.72658)"><g><path d="M 3.148438 -11.078125 L 0.796875 0 L 3.472656 0 L 5.824219 -11.078125 Z M 3.148438 -11.078125 "/></g></g></g><g fill="#ff6b57" fill-opacity="1"><g transform="translate(50.167796, 27.72658)"><g><path d="M 4.726562 -11.078125 C 3.84375 -11.078125 3.003906 -10.378906 2.820312 -9.496094 L 1.140625 -1.582031 C 1.109375 -1.464844 1.097656 -1.351562 1.097656 -1.238281 C 1.097656 -0.527344 1.609375 0 2.378906 0 L 9.097656 0 C 9.980469 0 10.835938 -0.699219 11.019531 -1.582031 L 11.390625 -3.375 L 8.699219 -3.375 L 8.558594 -2.648438 C 8.515625 -2.421875 8.300781 -2.265625 8.074219 -2.265625 L 4.355469 -2.265625 C 4.15625 -2.265625 4.03125 -2.378906 4.03125 -2.5625 C 4.03125 -2.589844 4.042969 -2.621094 4.042969 -2.648438 L 5.269531 -8.429688 C 5.3125 -8.65625 5.523438 -8.8125 5.753906 -8.8125 L 9.46875 -8.8125 C 9.667969 -8.8125 9.796875 -8.699219 9.796875 -8.515625 C 9.796875 -8.484375 9.78125 -8.457031 9.78125 -8.429688 L 9.625 -7.703125 L 12.316406 -7.703125 L 12.699219 -9.496094 C 12.730469 -9.609375 12.730469 -9.726562 12.730469 -9.824219 C 12.730469 -10.550781 12.214844 -11.078125 11.449219 -11.078125 Z M 4.726562 -11.078125 "/></g></g></g><g fill="#ff6b57" fill-opacity="1"><g transform="translate(61.243778, 27.72658)"><g><path d="M 3.148438 -11.078125 L 0.796875 0 L 3.472656 0 L 4.414062 -4.398438 L 7.390625 -4.414062 L 8.585938 0 L 11.546875 0 L 10.09375 -5.539062 L 13.898438 -11.078125 L 10.933594 -11.078125 L 7.875 -6.679688 L 4.898438 -6.679688 L 5.824219 -11.078125 Z M 3.148438 -11.078125 "/></g></g></g><g fill="#ff6b57" fill-opacity="1"><g transform="translate(72.547539, 27.72658)"><g><path d="M 2.90625 -11.078125 L 2.378906 -8.542969 L 3.160156 -8.542969 L 2.960938 -7.632812 C 2.917969 -7.433594 2.734375 -7.277344 2.535156 -7.277344 L 2.023438 -7.277344 L 1.652344 -5.539062 L 2.890625 -5.539062 C 3.660156 -5.539062 4.414062 -6.164062 4.570312 -6.933594 L 5.4375 -11.078125 Z M 2.90625 -11.078125 "/></g></g></g><g fill="#ff6b57" fill-opacity="1"><g transform="translate(75.807666, 27.72658)"><g><path d="M 4.726562 -11.078125 C 3.84375 -11.078125 3.003906 -10.378906 2.820312 -9.496094 L 2.066406 -5.980469 C 2.035156 -5.867188 2.035156 -5.753906 2.035156 -5.652344 C 2.035156 -4.925781 2.546875 -4.398438 3.316406 -4.398438 L 8.527344 -4.398438 C 8.726562 -4.398438 8.882812 -4.199219 8.84375 -4 L 8.558594 -2.648438 C 8.515625 -2.449219 8.273438 -2.265625 8.074219 -2.265625 L 1.59375 -2.265625 L 1.109375 0 L 9.097656 0 C 9.980469 0 10.835938 -0.699219 11.019531 -1.582031 L 11.761719 -5.097656 C 11.789062 -5.210938 11.804688 -5.324219 11.804688 -5.4375 C 11.804688 -6.152344 11.289062 -6.679688 10.523438 -6.679688 L 5.296875 -6.679688 C 5.097656 -6.679688 4.941406 -6.878906 4.984375 -7.078125 L 5.269531 -8.429688 C 5.3125 -8.628906 5.554688 -8.8125 5.753906 -8.8125 L 12.246094 -8.8125 L 12.714844 -11.078125 Z M 4.726562 -11.078125 "/></g></g></g><g fill="#feba2d" fill-opacity="1"><g transform="translate(39.935068, 79.323397)"><g><path d="M 1.933594 -8.214844 C 1.277344 -8.214844 0.761719 -7.699219 0.761719 -7.042969 L 0.761719 -1.171875 C 0.761719 -0.515625 1.277344 0 1.933594 0 L 6.21875 0 C 6.875 0 7.390625 -0.515625 7.390625 -1.171875 L 7.390625 -4.402344 L 4.320312 -4.402344 L 4.320312 -3.316406 L 6.273438 -3.316406 L 6.273438 -1.5625 C 6.273438 -1.289062 6.050781 -1.078125 5.777344 -1.078125 L 2.375 -1.078125 C 2.101562 -1.078125 1.878906 -1.289062 1.878906 -1.5625 L 1.878906 -6.652344 C 1.878906 -6.925781 2.101562 -7.136719 2.375 -7.136719 L 5.777344 -7.136719 C 6.050781 -7.136719 6.273438 -6.925781 6.273438 -6.652344 L 6.273438 -6.324219 L 7.390625 -6.324219 L 7.390625 -7.042969 C 7.390625 -7.699219 6.875 -8.214844 6.21875 -8.214844 Z M 1.933594 -8.214844 "/></g></g></g><g fill="#feba2d" fill-opacity="1"><g transform="translate(50.725027, 79.323397)"><g><path d="M 0.117188 -8.214844 L 3.515625 -2.34375 L 3.515625 0 L 4.636719 0 L 4.636719 -2.34375 L 8.035156 -8.214844 L 6.777344 -8.214844 L 4.074219 -3.421875 L 1.371094 -8.214844 Z M 0.117188 -8.214844 "/></g></g></g><g fill="#feba2d" fill-opacity="1"><g transform="translate(61.514986, 79.323397)"><g><path d="M 0.761719 -8.214844 L 0.761719 0 L 1.878906 0 L 1.878906 -6.367188 L 4.414062 -1.171875 L 5.027344 -1.171875 L 7.570312 -6.367188 L 7.570312 0 L 8.679688 0 L 8.679688 -8.214844 L 7.558594 -8.214844 L 4.71875 -2.460938 L 1.878906 -8.214844 Z M 0.761719 -8.214844 "/></g></g></g></svg>